<?xml version="1.0" encoding="utf-8"?>
<!-- Generator: Adobe Illustrator 16.0.3, SVG Export Plug-In . SVG Version: 6.00 Build 0)  -->
<!DOCTYPE svg PUBLIC "-//W3C//DTD SVG 1.1//EN" "http://www.w3.org/Graphics/SVG/1.1/DTD/svg11.dtd">
<svg version="1.1" id="Camada_1" xmlns="http://www.w3.org/2000/svg" xmlns:xlink="http://www.w3.org/1999/xlink" x="0px" y="0px"
	 width="50px" height="50px" viewBox="0 0 50 50" enable-background="new 0 0 50 50" xml:space="preserve">
<path fill="#EA2D2E" d="M28.995,0c0,0,1.216,5.055-4.095,9.278c-5.311,4.223-9.663,7.743-6.079,11.902
	c3.584,4.159,5.184,5.567,5.184,5.567s-4.799-5.696-4.032-8.639c0.768-2.943,1.919-3.135,5.759-6.271
	C29.571,8.702,32.067,4.096,28.995,0z"/>
<path fill="#EA2D2E" d="M34.946,9.918c0,0-9.942,2.329-10.941,8.574c-0.769,4.799,5.375,4.415,2.111,9.855
	c0,0,5.759-2.88,2.495-6.976C25.349,17.277,26.308,15.549,34.946,9.918z"/>
<path fill="#107CC0" d="M18.054,27.131c0,0-12.414,3.326,1.919,3.008c0,0,7.231,0.318,13.822-1.152c0,0,0.256,2.367-15.23,2.688
	C3.08,31.994,10.887,27.004,18.054,27.131z"/>
<path fill="#4F3604" d="M16.262,32.762c0,0-4.415,2.688,5.887,2.305c10.302-0.385,8.255-1.217,8.255-1.217l2.368,1.473
	c0,0-8.703,2.623-16.765,0.832C16.006,36.154,10.119,34.682,16.262,32.762z"/>
<path fill="#4F3604" d="M17.158,38.072c0,0-0.64,2.176,5.375,1.793c6.015-0.385,6.59-0.832,6.59-0.832l2.496,1.6
	c0,0-4.095,1.727-8.574,1.727c-4.48,0-8.639-1.535-8.191-2.623C15.302,38.648,16.646,38.201,17.158,38.072z"/>
<path fill="#4F3604" d="M13.382,41.85c0,0-9.662,2.559,0,3.262c9.663,0.705,15.101,0.576,22.268-0.447c0,0,5.119-0.449,3.392-2.496
	c0,0,4.863,2.305-6.271,4.16c-11.135,1.855-25.276,0.768-26.876-1.537C4.296,42.488,10.951,41.785,13.382,41.85z"/>
<path fill="#4F3604" d="M12.295,47.734c0,0,2.239,1.984,11.454,1.92c9.214-0.063,17.276-0.768,18.428-4.926
	c0,0-5.694,3.646-15.102,3.711C17.669,48.504,13.446,48.695,12.295,47.734z"/>
<path fill="#107CC0" d="M35.65,27.58c0,0,4.703-1.25,4.799,2.83c0,0-0.576,3.072-5.902,5.52c0,0,5.135,1.15,7.87-5.662
	C42.417,30.268,42.32,24.604,35.65,27.58z"/>
</svg>
